<?xml version="1.0" encoding="utf-8"?>
<!-- Generator: Adobe Illustrator 18.0.0, SVG Export Plug-In . SVG Version: 6.00 Build 0)  -->
<!DOCTYPE svg PUBLIC "-//W3C//DTD SVG 1.1//EN" "http://www.w3.org/Graphics/SVG/1.1/DTD/svg11.dtd">
<svg version="1.1" id="Layer_1" xmlns="http://www.w3.org/2000/svg" xmlns:xlink="http://www.w3.org/1999/xlink" x="0px" y="0px"
	 viewBox="0 0 300 300" enable-background="new 0 0 300 300" xml:space="preserve">
<path fill="#7B2B8C" d="M291,5.7c-2.6-1.2-5.6-0.7-7.7,1.2c-15.6,15-42.5,37.1-82,57.6c-1.7,0.9-3,2.5-3.5,4.4
	c-3.2,12.7-9.5,26.6-18.8,41.3l-3.8,6l7-30.6c0.6-2.5-0.3-5.1-2.3-6.7c-2-1.6-4.7-2-7-1l-0.8,0.3C92.5,111.6,69,163.6,62,191.6
	c-2.4,9.7-3.6,19.3-3.6,28.6c0,3.6,0.2,7,0.6,10.2L5.9,284.5c-2.6,2.6-2.6,6.8-0.1,9.5c1.3,1.4,3.1,2.1,4.9,2.1
	c1.6,0,3.2-0.6,4.5-1.7l145.9-131.1c0.7,0-83.1,87.8-82.3,87.8c11.4,0,27.1-5.2,45.4-15.2c24.7-13.4,52.4-33.9,80-59.3
	c2.3-2.1,2.8-5.4,1.4-8.2c-1.4-2.7-4.5-4.1-7.5-3.5l-17.1,3.9l6-3.8c16.7-10.5,32.3-17.2,46.3-19.9c1.5-0.3,2.9-1.1,3.9-2.3
	c33.1-39,47.1-77.5,53-103c2.2-9.3,3.7-18.5,4.5-27.5C295.1,9.6,293.5,6.9,291,5.7L291,5.7z M291,5.7"/>
</svg>
