<?xml version="1.0" encoding="utf-8"?>
<!-- Generator: Adobe Illustrator 18.0.0, SVG Export Plug-In . SVG Version: 6.00 Build 0)  -->
<!DOCTYPE svg PUBLIC "-//W3C//DTD SVG 1.1//EN" "http://www.w3.org/Graphics/SVG/1.1/DTD/svg11.dtd">
<svg version="1.1" id="Layer_1" xmlns="http://www.w3.org/2000/svg" xmlns:xlink="http://www.w3.org/1999/xlink" x="0px" y="0px"
	 viewBox="0 0 300 300" enable-background="new 0 0 300 300" xml:space="preserve">
<g>
	<path fill="#FFFFFF" d="M102.2,132.3c1.5,1,5.9,4.1,13.4,9.3c7.4,5.2,13.1,9.1,17.1,11.9c0.4,0.3,1.4,1,2.8,2
		c1.4,1,2.6,1.8,3.5,2.5c0.9,0.6,2.1,1.3,3.4,2.1c1.3,0.8,2.6,1.4,3.7,1.8c1.2,0.4,2.3,0.6,3.3,0.6h0.1c1,0,2.1-0.2,3.3-0.6
		c1.2-0.4,2.4-1,3.7-1.8c1.3-0.8,2.5-1.5,3.4-2.1c0.9-0.6,2.1-1.5,3.5-2.5c1.4-1,2.3-1.7,2.8-2c4-2.8,14.2-9.8,30.5-21.2
		c3.2-2.2,5.8-4.9,7.9-8c2.1-3.1,3.2-6.4,3.2-9.8c0-2.9-1-5.3-3.1-7.4c-2.1-2-4.5-3.1-7.3-3.1h-95.9c-3.3,0-5.9,1.1-7.7,3.4
		c-1.8,2.3-2.7,5.1-2.7,8.5c0,2.7,1.2,5.7,3.6,8.9C97,128,99.5,130.5,102.2,132.3L102.2,132.3z M102.2,132.3"/>
	<path fill="#FFFFFF" d="M201.3,139.3c-14.3,9.6-25.1,17.1-32.5,22.5c-2.5,1.8-4.5,3.3-6,4.3c-1.5,1-3.6,2.1-6.2,3.1
		c-2.6,1.1-5,1.6-7.2,1.6h-0.1c-2.2,0-4.6-0.5-7.2-1.6c-2.6-1.1-4.6-2.1-6.2-3.1c-1.5-1-3.6-2.4-6-4.3c-5.9-4.3-16.7-11.8-32.4-22.5
		c-2.5-1.7-4.7-3.5-6.6-5.7v51.8c0,2.9,1,5.3,3.1,7.4c2,2,4.5,3.1,7.4,3.1h95.9c2.9,0,5.3-1,7.4-3.1c2-2,3.1-4.5,3.1-7.4v-51.8
		C205.9,135.7,203.8,137.6,201.3,139.3L201.3,139.3z M201.3,139.3"/>
</g>
</svg>
