<?xml version="1.0" encoding="utf-8"?>
<!-- Generator: Adobe Illustrator 18.0.0, SVG Export Plug-In . SVG Version: 6.00 Build 0)  -->
<!DOCTYPE svg PUBLIC "-//W3C//DTD SVG 1.1//EN" "http://www.w3.org/Graphics/SVG/1.1/DTD/svg11.dtd">
<svg version="1.1" id="Layer_1" xmlns="http://www.w3.org/2000/svg" xmlns:xlink="http://www.w3.org/1999/xlink" x="0px" y="0px"
	 viewBox="0 0 32.2 32.1" enable-background="new 0 0 32.2 32.1" xml:space="preserve">
<g id="XMLID_794_">
	<g id="XMLID_799_">
		<path fill="#FFFFFF" d="M25.4,12.8c0-1-0.2-1.7-0.4-2.3c-0.2-0.6-0.6-1.1-1.1-1.7c-0.5-0.5-1-0.8-1.7-1.1C21.7,7.6,21,7.4,20,7.4
			c-1,0-1.3-0.1-3.9-0.1s-2.9,0-3.9,0.1c-1,0-1.7,0.2-2.3,0.4C9.4,8.1,8.9,8.4,8.4,8.9c-0.5,0.5-0.8,1-1.1,1.7
			c-0.2,0.6-0.4,1.3-0.4,2.3c0,1-0.1,1.3-0.1,3.9c0,2.5,0,2.9,0.1,3.9c0,1,0.2,1.7,0.4,2.3c0.2,0.6,0.6,1.1,1.1,1.7
			c0.5,0.5,1,0.8,1.7,1.1c0.6,0.2,1.3,0.4,2.3,0.4c1,0,1.3,0.1,3.9,0.1s2.9,0,3.9-0.1c1,0,1.7-0.2,2.3-0.4c0.6-0.2,1.1-0.6,1.7-1.1
			s0.8-1,1.1-1.7c0.2-0.6,0.4-1.3,0.4-2.3c0-1,0.1-1.3,0.1-3.9C25.5,14.1,25.5,13.8,25.4,12.8z M23.7,20.4c0,0.9-0.2,1.4-0.3,1.7
			c-0.2,0.4-0.4,0.7-0.7,1.1c-0.3,0.3-0.6,0.5-1.1,0.7c-0.3,0.1-0.8,0.3-1.7,0.3c-1,0-1.3,0.1-3.8,0.1s-2.8,0-3.8-0.1
			c-0.9,0-1.4-0.2-1.7-0.3c-0.4-0.2-0.7-0.4-1.1-0.7c-0.3-0.3-0.5-0.6-0.7-1.1c-0.1-0.3-0.3-0.8-0.3-1.7c0-1-0.1-1.3-0.1-3.8
			c0-2.5,0-2.8,0.1-3.8c0-0.9,0.2-1.4,0.3-1.7c0.2-0.4,0.4-0.7,0.7-1.1c0.3-0.3,0.6-0.5,1.1-0.7c0.3-0.1,0.8-0.3,1.7-0.3
			c1,0,1.3-0.1,3.8-0.1c2.5,0,2.8,0,3.8,0.1c0.9,0,1.4,0.2,1.7,0.3c0.4,0.2,0.7,0.4,1.1,0.7c0.3,0.3,0.5,0.6,0.7,1.1
			c0.1,0.3,0.3,0.8,0.3,1.7c0,1,0.1,1.3,0.1,3.8C23.8,19.2,23.8,19.5,23.7,20.4z"/>
	</g>
	<g id="XMLID_796_">
		<path fill="#FFFFFF" d="M16.1,11.9c-2.6,0-4.8,2.1-4.8,4.8c0,2.6,2.1,4.8,4.8,4.8s4.8-2.1,4.8-4.8C20.9,14,18.8,11.9,16.1,11.9z
			 M16.1,19.8c-1.7,0-3.1-1.4-3.1-3.1c0-1.7,1.4-3.1,3.1-3.1s3.1,1.4,3.1,3.1C19.3,18.4,17.9,19.8,16.1,19.8z"/>
	</g>
	<g id="XMLID_795_">
		<circle fill="#FFFFFF" cx="21.1" cy="11.1" r="1.1"/>
	</g>
</g>
</svg>
